<svg width="172" height="172" viewBox="0 0 172 172" fill="none" xmlns="http://www.w3.org/2000/svg">
<g transform="translate(0, 12.5)">
<path d="M15.15 131.48C10.27 131.55 0.5 131.55 0.5 131.55C0.5 131.55 0 87.9601 0 58.7301H5.07C40.23 58.7301 75.39 58.6101 110.55 58.8001C120.56 58.8501 140.82 58.8501 140.82 58.8501V29.3601H156.09V103.29H140.88V118.59H125.03C125.03 122.95 125.09 126.72 125.09 131.41H110.41V146.56H15.15V131.48C36.58 131.41 58.01 131.41 79.5 131.41V118.63C58.18 118.63 37.11 118.63 16.04 118.63C15.87 118.63 15.68 118.73 15.54 118.83C15.39 118.94 15.28 119.11 15.15 119.25V131.48ZM53.81 89.3801C52.69 89.3801 40.01 89.4001 40.01 89.4001C39.95 93.2801 39.87 98.1001 39.85 101.98H53.81V89.3801Z" fill="#7c3aed"/>
<path d="M64.4399 15.27C64.4399 15.22 64.4799 11.68 64.4799 10.57C64.4799 9.64 64.4399 2.17 64.4399 0C65.9999 0 73.4699 0.0100021 75.0299 0.0100021C75.0699 0.0100021 79.7399 0.0100021 79.7399 0.0100021C79.7399 0.0100021 79.8899 11.83 79.8899 15.27H95.0299C95.0299 15.27 94.9299 24.67 94.9299 29.97C94.9299 34.77 95.0299 39.6 95.0299 44.52H79.8799V15.27H66.8399C66.4799 15.29 64.4499 15.27 64.4499 15.27H64.4399Z" fill="#7c3aed"/>
<path d="M110.29 0H95.02V15.27H110.29V0Z" fill="#7c3aed"/>
<path d="M140.76 15.27H125.49V30.89H140.76V15.27Z" fill="#7c3aed"/>
<path d="M171.36 15.6299H156.09V30.8999H171.36V15.6299Z" fill="#7c3aed"/>
</g>
</svg>
